<?xml version="1.0" encoding="UTF-8"?>
<!DOCTYPE svg PUBLIC "-//W3C//DTD SVG 1.1//EN" "http://www.w3.org/Graphics/SVG/1.1/DTD/svg11.dtd">
<!-- Creator: CorelDRAW 2020 (64 Bit) -->
<svg xmlns="http://www.w3.org/2000/svg" xml:space="preserve" width="1080px" height="1037px" version="1.1" style="shape-rendering:geometricPrecision; text-rendering:geometricPrecision; image-rendering:optimizeQuality; fill-rule:evenodd; clip-rule:evenodd"
viewBox="0 0 1080 1037"
 xmlns:xlink="http://www.w3.org/1999/xlink"
 xmlns:xodm="http://www.corel.com/coreldraw/odm/2003">
 <defs>
  <style type="text/css">
   <![CDATA[
    .fil1 {fill:#003399}
    .fil0 {fill:#990000;fill-rule:nonzero}
   ]]>
  </style>
 </defs>
 <g id="Camada_x0020_1">
  <metadata id="CorelCorpID_0Corel-Layer"/>
  <g id="_2059884800192">
   <path class="fil0" d="M394.458 538.326l257.615 -446.212 235.933 408.696c-14.524,-0.249 -29.062,-0.341 -43.556,-0.341 -7.475,0 -15.009,0.038 -22.636,0.092l-130.113 -225.408 -39.628 -68.63 -39.649 68.63 -145.193 251.487c-24.55,3.544 -48.865,7.444 -72.773,11.686zm257.615 -240.297l143.51 248.619c16.198,-0.302 32.486,-0.425 48.867,-0.425 41.998,0 83.45,0.947 124.235,2.78l-316.612 -548.397 -347.902 602.594c60.422,-13.781 124.51,-25.315 191.52,-34.311l156.382 -270.86z"/>
   <path class="fil1" d="M798.719 544.083c99.01,0 193.786,6.187 281.28,17.466 -18.623,-0.406 -37.386,-0.636 -56.309,-0.636 -481.616,0 -872.045,133.719 -872.045,298.67 0,66.616 63.704,128.133 171.35,177.81 -195.984,-49.851 -322.995,-129.718 -322.995,-219.752 0,-151.082 357.6,-273.558 798.719,-273.558z"/>
  </g>
 </g>
</svg>
